<?xml version="1.0" standalone="no"?>
<!DOCTYPE svg PUBLIC "-//W3C//DTD SVG 20010904//EN"
 "http://www.w3.org/TR/2001/REC-SVG-20010904/DTD/svg10.dtd">
<svg version="1.0" xmlns="http://www.w3.org/2000/svg"
 width="75.000000pt" height="84.000000pt" viewBox="0 0 75.000000 84.000000"
 preserveAspectRatio="xMidYMid meet">

<g transform="translate(0.000000,84.000000) scale(0.100000,-0.100000)"
fill="#000000" stroke="none">
<path d="M370 646 c-41 -12 -101 -35 -133 -50 -61 -29 -77 -52 -77 -107 l0
-29 40 39 c76 73 286 153 323 123 22 -19 9 -58 -39 -111 -41 -46 -109 -89
-121 -77 -3 3 11 34 31 70 32 59 38 96 16 96 -26 0 -158 -268 -167 -341 -6
-40 8 -69 33 -69 9 0 14 12 14 32 l0 32 28 -33 28 -34 46 17 c50 19 122 82
133 116 10 30 -25 93 -54 100 -24 5 -23 6 16 38 40 31 83 101 83 134 0 9 -12
30 -26 47 -32 38 -67 40 -174 7z m109 -265 c20 -13 5 -46 -37 -79 -61 -46
-103 -60 -131 -43 -11 7 -10 17 4 62 10 30 23 57 29 61 15 11 118 10 135 -1z"/>
</g>
</svg>
